<svg xmlns="http://www.w3.org/2000/svg" xmlns:xlink="http://www.w3.org/1999/xlink" viewBox="0 0 1920 1080"><defs><style>.cls-1{fill:url(#fleurs);}.cls-2{fill:url(#fleurs-2);}.cls-3{fill:url(#fleurs-3);}.cls-4{fill:url(#fleurs-4);}.cls-5{fill:#b3608b;}.cls-6{fill:url(#fleurs-5);}.cls-7{fill:url(#fleurs-6);}.cls-8{fill:#603813;}.cls-9{fill:url(#fleurs-7);}.cls-10{fill:url(#fleurs-8);}.cls-11{fill:url(#fleurs-9);}.cls-12{fill:url(#fleurs-10);}.cls-13{fill:url(#fleurs-11);}.cls-14{fill:url(#fleurs-12);}.cls-15{fill:url(#fleurs-13);}.cls-16{fill:url(#fleurs-14);}.cls-17{fill:url(#fleurs-15);}.cls-18{fill:url(#fleurs-16);}.cls-19{fill:url(#fleurs-17);}.cls-20{fill:url(#fleurs-18);}.cls-21{fill:none;stroke:#b3608b;stroke-miterlimit:10;stroke-width:0.75px;}</style><radialGradient id="fleurs" cx="140.8" cy="790.03" r="19.32" gradientTransform="translate(495.5 38.45) rotate(33.49)" gradientUnits="userSpaceOnUse"><stop offset="0" stop-color="#f7b5d3"/><stop offset="0.29" stop-color="#fac0d8"/><stop offset="0.65" stop-color="#ffd5e2"/><stop offset="0.87" stop-color="#ffd9e5"/><stop offset="1" stop-color="#ffdfe8"/></radialGradient><radialGradient id="fleurs-2" cx="396.67" cy="972.15" r="19.32" gradientTransform="matrix(-0.55, 0.83, -1.03, -0.68, 1582.52, 1324.84)" xlink:href="#fleurs"/><radialGradient id="fleurs-3" cx="298.26" cy="1142.99" r="24.76" gradientTransform="translate(-267.65 2110.15) rotate(-146.51)" xlink:href="#fleurs"/><radialGradient id="fleurs-4" cx="231.22" cy="827.68" r="38.54" gradientTransform="matrix(1, 0, 0, 1, 0, 0)" xlink:href="#fleurs"/><radialGradient id="fleurs-5" cx="164.07" cy="891.95" r="65.59" gradientTransform="matrix(1, 0, 0, 1, 0, 0)" xlink:href="#fleurs"/><radialGradient id="fleurs-6" cx="447.22" cy="976.58" r="59.41" gradientTransform="matrix(1, 0, 0, 1, 0, 0)" xlink:href="#fleurs"/><radialGradient id="fleurs-7" cx="264.88" cy="902.74" r="51.43" gradientTransform="matrix(1, 0, 0, 1, 0, 0)" xlink:href="#fleurs"/><radialGradient id="fleurs-8" cx="17.16" cy="893.76" r="48.13" gradientTransform="matrix(1, 0, 0, 1, 0, 0)" xlink:href="#fleurs"/><radialGradient id="fleurs-9" cx="20.56" cy="750.94" r="24.92" gradientTransform="matrix(1, 0, 0, 1, 0, 0)" xlink:href="#fleurs"/><radialGradient id="fleurs-10" cx="1.49" cy="-611.52" r="19.32" gradientTransform="translate(2081.54 -188.42) rotate(-146.51)" xlink:href="#fleurs"/><radialGradient id="fleurs-11" cx="-1004.88" cy="1084.73" r="19.32" gradientTransform="matrix(0.55, -0.83, 1.03, 0.68, 994.52, -1474.81)" xlink:href="#fleurs"/><radialGradient id="fleurs-12" cx="437.57" cy="2544.54" r="24.76" gradientTransform="translate(2844.69 -2260.12) rotate(33.49)" xlink:href="#fleurs"/><radialGradient id="fleurs-13" cx="888.35" cy="-418.08" r="38.54" gradientTransform="translate(2577.04 -149.97) rotate(180)" xlink:href="#fleurs"/><radialGradient id="fleurs-14" cx="821.2" cy="-353.82" r="65.59" gradientTransform="translate(2577.04 -149.97) rotate(180)" xlink:href="#fleurs"/><radialGradient id="fleurs-15" cx="1104.35" cy="-269.19" r="59.41" gradientTransform="translate(2577.04 -149.97) rotate(180)" xlink:href="#fleurs"/><radialGradient id="fleurs-16" cx="922.01" cy="-343.03" r="51.43" gradientTransform="translate(2577.04 -149.97) rotate(180)" xlink:href="#fleurs"/><radialGradient id="fleurs-17" cx="674.29" cy="-352.01" r="48.13" gradientTransform="translate(2577.04 -149.97) rotate(180)" xlink:href="#fleurs"/><radialGradient id="fleurs-18" cx="677.69" cy="-494.82" r="24.92" gradientTransform="translate(2577.04 -149.97) rotate(180)" xlink:href="#fleurs"/></defs><g id="Calque_1" data-name="Calque 1"><path class="cls-1" d="M179.37,789.46s3.8,8.39,12.74-3.55,5-21.17-4.89-25.78-21.09,2.68-21.09,2.68q-14.3,20.52-1.72,19.39Z"/><path class="cls-2" d="M343.79,992.84s-9.36,3.16,5.53,14,25.21,7.68,29.5-2.42-5.42-22.91-5.42-22.91q-25.47-17.58-22.79-4Z"/><path class="cls-3" d="M115.81,972.87s-11.85-4.09-22.17,9.7-5.78,24.46,5.64,29.79,24.37-3.1,24.37-3.1c19.42-14,9.24-34.5-.43-33.65Z"/><path class="cls-4" d="M230.19,841.17s19.41,5.12,28.35-6.82-1.72-30.65-11.61-35.26-16.11-.86-21.09,2.68-11.51,24.73-3.14,24Z"/><path class="cls-5" d="M428.56,944.72,412,954.5s-18.66-8.89-48.29-3.26-84.6-7-84.6-7l1.63,1.63s29.34,20.14,44.74,28.14,26.37-9.18,37.63-3-7.4,5.13-7.4,5.13-8.89,4.94-2.67,9.69,5,12.14-2.07,9.48-7.71-1.82-5.34,3.26,2.37,10.37-3.85,6.51-8.59-13-8.59-13-75.26-51-91.85-55.41c-13.33-3.57-48.91-4.18-78.82-11.49-10,0-18.68.51-22.81,2.08-8,4.81-6.52,12.08-13,23s-2.07,22.22-2.07,22.22,9.83,4.13,10.26,17.43a.68.68,0,0,1-1.32.27c-3.17-7.45-11.61-13.55-11.61-13.55s1.78,13.63-1.78,19.26c-8.3-1.19-4.74-19.85-4.74-19.85s-3.85-5.63-5.93,2.74c-1.63,6.58-11.87,6.43-16.17,6.07a1.65,1.65,0,0,1-1.37-2.29c1.1-2.52,4.43-7.08,14.58-12.15,9-11.85,9.48-12.74,13.93-27.56a232.16,232.16,0,0,1,11.47-29.07h0c.78.39,1.57.76,2.36,1.14l-1.4-3.18,0,.06c-.1.19-.44.88-1,2A366.62,366.62,0,0,1,84,885.76S30,854.65,18.78,860.57c0,0-18.78,10.37-18.78,29v-71.7s67.07,13.92,88.11,3.55,64.59-35.85,64.59-35.85c5.4-8.41,3.56-23.55,18.57-25.29-9.07,10.53-6.92,16.39,1.29,14.33,1.72-.43,2.07-4.15,5.92-4.15s9,.34,6.22,1.78-4.46,9.32-10.07,9.77c-5.25.42,4.4,9.84,17.48,3.86-3.55,7.1-14.08,11.7-24.15,8.14s-27.7,6.08-27.7,6.08l-48,27.26s23.11-2.08,36.15,5.63S190,851.39,216.7,842.2c8.3-4.44,1.19-15.11,1.19-15.11s-1.48-12.74,1.18-16.89,1.49,12.74,5.63,16.89,4.74,7.7,4.74,7.7,10.67-6.51,13.34-18.37,5.33,17.78-3.56,23.41c0,0,6.22,2.08,15.71-3.85s-.6,5.93-9.19,8.3-11.55-.91-18.67,1.47-13.63,5-25.48,6.23-30.5,5-67.54-7.45-90.52,1-90.52,1c21.54,2.86,74.62,45.52,121.25,62,36.71,13,58.74,7.48,58.74,7.48l16.29-16.89,2.34,9.51-9.74,11.23s43.7,9.34,51.7,14.67,54.37,19.41,88.74,11.7S428.56,944.72,428.56,944.72Z"/><path class="cls-5" d="M134.25,915l-2-1-.4-.19c.51-1.1.85-1.79,1-2l0-.06Z"/><path class="cls-6" d="M135.67,868.94a142.87,142.87,0,0,1-1.78-16c-.22-6.89,1.11-3.33,7.78-15.11s22.89-12,30.44-2.66,4.67,27.55,4.67,27.55,1.11-7.11,27.33-10.67,24.67,17.12,27.33,24.45S219.89,900.05,213,901.83s-17.78.67-17.78.67,3.11,1.55,11.11,20.22-5.77,24.22-14.89,30.45-18.66-2.23-26.44-8.23-6.44-26.22-6.22-22.44-6.67,25.33-17.34,27.55-13.11-12.22-22.22-12.88-16.89-4.45-10.66-19.34,23.77-16,27.11-17.55c-13.34-2.23-29.78-4.22-35.11-8.33s-5.34-9-1.34-11.9.22-16.66,7.78-15.11S101.89,844.5,135.67,868.94Z"/><path class="cls-7" d="M414.6,963.61a142.86,142.86,0,0,1-6.57-14.7c-2.31-6.49.05-3.51,2.81-16.76S429,913.75,439,920.34s12.84,24.82,12.84,24.82-1.11-7.11,22.78-18.49,28.71,8.78,33.49,15-3.83,26-9.85,29.74-16.73,6.06-16.73,6.06,3.44.53,16.74,15.87,1.88,24.83-4.9,33.53-18.46,3.58-27.69.23-14.13-23-12.77-19.48,1.37,26.16-8.11,31.53-16.21-7.65-25.09-5.51-17.44.91-16.06-15.16,17.78-22.49,20.48-25c-13.38,1.94-29.65,5-36,2.76s-7.82-7-4.9-10.92-4.86-15.94,2.81-16.76S375,950.62,414.6,963.61Z"/><path class="cls-8" d="M268.9,903.88l-1,.32.17-.45Z"/><path class="cls-8" d="M268.9,903.88l-1,.32.17-.45Z"/><path class="cls-9" d="M256.35,934a13.37,13.37,0,0,1-4.38.81c-1.42-.5-9.64,2.54-13.18,8.61s-8.09.07-9.68-1.36-.23-6.91-9.87-10.66-4.49-21.28-.73-26.73c1.45-2.11,5.21-4.54,9.27-6.75-12.39-.23-13.11-2.35-13.11-17.06,0-17,8-18.4,16.19-21.43,5.18-1.91,14.87,7.64,18,11.07,1-1.92-.09-16.33,4.5-14.93s1-9.28,14.64-2c13.15,7,13.42,19.17,8.89,32.52,1.36-.3,8.65-1.95,10.33-2,0,0,22.55-1,25.73,16.79s9.55,21.69-16.83,19.78c-1.56-.11-3-.24-4.37-.4C304.06,931.31,299,935,299,935s-6.37,28.65-27.74,16.43C271.29,951.4,259.37,944.85,256.35,934Z"/><path class="cls-10" d="M66.37,896c-.44,17.32-10.89,21.57-20,26.24s-14.89-8-8.89,3.11,2.67,20.89-9.77,34S0,956.05,0,956.05l0-48.43V849.39s5.71,7.33,7,3.77-1.11-10,24-12,31.33,16.23,30.22,24.23-2.89,8.22.45,9.33S66.82,878.72,66.37,896Z"/><path class="cls-11" d="M24.85,772.28s16.74-9,17.78-26.82-11.11-22.37-24-20.44S1.74,745.31,1.74,745.31l1.19,27Z"/><path class="cls-5" d="M.15,793.61S1.74,773.76,13,775.83s11.85-3.55,11.85-3.55L12.5,770.79s10.28-3.25,10.28-10.66-8.59-5.34-8.59-5.34-4.75,1.49-4.75-6.22-7.7-3.26-7.7-3.26L.15,749.76Z"/><path class="cls-12" d="M1740.54,306.33s-3.8-8.39-12.74,3.55-5,21.17,4.89,25.78,21.09-2.68,21.09-2.68q14.29-20.52,1.72-19.39Z"/><path class="cls-13" d="M1576.12,103s9.36-3.16-5.53-14-25.22-7.68-29.51,2.42,5.43,22.91,5.43,22.91q25.47,17.58,22.79,4Z"/><path class="cls-14" d="M1804.09,122.92s11.86,4.09,22.18-9.7,5.78-24.46-5.64-29.79-24.37,3.1-24.37,3.1c-19.43,14-9.25,34.51.43,33.65Z"/><path class="cls-15" d="M1689.72,254.63s-19.42-5.13-28.35,6.81,1.72,30.65,11.61,35.26,16.11.86,21.09-2.68,11.51-24.73,3.13-24Z"/><path class="cls-5" d="M1491.35,151.07l16.6-9.78s18.66,8.89,48.29,3.26,84.6,7,84.6,7l-1.63-1.63s-29.34-20.14-44.74-28.14-26.37,9.18-37.63,3,7.4-5.13,7.4-5.13,8.89-4.94,2.67-9.69-5-12.14,2.07-9.48,7.71,1.82,5.34-3.26-2.37-10.37,3.85-6.51,8.59,13,8.59,13,75.26,51,91.85,55.41c13.33,3.57,48.91,4.18,78.82,11.49,10,0,18.68-.51,22.81-2.08,8-4.81,6.52-12.08,13-23s2.07-22.22,2.07-22.22-9.83-4.13-10.27-17.43a.69.69,0,0,1,1.33-.27c3.16,7.45,11.61,13.55,11.61,13.55s-1.78-13.63,1.78-19.26c8.3,1.19,4.74,19.85,4.74,19.85s3.85,5.63,5.93-2.74c1.63-6.58,11.87-6.43,16.17-6.06a1.64,1.64,0,0,1,1.37,2.28c-1.1,2.52-4.43,7.08-14.58,12.15-9,11.85-9.48,12.74-13.93,27.56A232.16,232.16,0,0,1,1788,181.92h0c-.78-.39-1.57-.76-2.36-1.14l1.4,3.18,0-.06c.1-.19.44-.88,1-2A366.62,366.62,0,0,1,1836,210s53.92,31.11,65.18,25.19c0,0,18.78-10.37,18.78-29v71.7s-67.07-13.92-88.11-3.55-64.59,35.85-64.59,35.85c-5.4,8.41-3.56,23.55-18.57,25.29,9.07-10.52,6.92-16.39-1.29-14.33-1.72.43-2.07,4.15-5.92,4.15s-9-.34-6.22-1.78,4.46-9.32,10.07-9.77c5.25-.42-4.4-9.83-17.48-3.86,3.55-7.1,14.08-11.7,24.15-8.14s27.7-6.08,27.7-6.08l48-27.26s-23.11,2.08-36.15-5.63-61.63-18.37-88.29-9.18c-8.3,4.44-1.19,15.11-1.19,15.11s1.48,12.74-1.18,16.89-1.49-12.74-5.63-16.89-4.74-7.7-4.74-7.7-10.67,6.51-13.34,18.37-5.33-17.78,3.56-23.41c0,0-6.22-2.08-15.71,3.85s.6-5.93,9.19-8.3,11.55.91,18.67-1.47,13.63-5,25.48-6.23,30.5-5,67.54,7.45,90.52-1,90.52-1c-21.54-2.86-74.62-45.52-121.25-62-36.71-13-58.74-7.48-58.74-7.48l-16.29,16.89-2.34-9.51,9.74-11.23s-43.7-9.34-51.7-14.67-54.37-19.41-88.74-11.7S1491.35,151.07,1491.35,151.07Z"/><path class="cls-5" d="M1785.66,180.78l2,.95.4.19c-.51,1.1-.85,1.79-1,2l0,.06Z"/><path class="cls-16" d="M1784.24,226.85a142.87,142.87,0,0,1,1.78,16c.22,6.89-1.11,3.33-7.78,15.11s-22.89,12-30.44,2.67-4.67-27.56-4.67-27.56-1.11,7.11-27.33,10.67-24.67-17.11-27.34-24.45S1700,195.74,1706.91,194s17.78-.67,17.78-.67-3.12-1.55-11.12-20.22,5.78-24.22,14.89-30.44,18.67,2.22,26.45,8.22,6.44,26.22,6.22,22.44,6.67-25.33,17.33-27.55,13.11,12.22,22.23,12.89,16.88,4.44,10.66,19.33-23.78,16-27.11,17.55c13.33,2.23,29.78,4.22,35.11,8.33s5.34,9,1.34,11.9-.23,16.66-7.78,15.11S1818,251.29,1784.24,226.85Z"/><path class="cls-17" d="M1505.31,132.18a142.86,142.86,0,0,1,6.57,14.7c2.31,6.49-.05,3.51-2.81,16.76s-18.14,18.4-28.18,11.82-12.84-24.83-12.84-24.83,1.11,7.11-22.79,18.49-28.7-8.78-33.48-15,3.83-26,9.85-29.75,16.73-6,16.73-6-3.44-.54-16.74-15.88-1.88-24.83,4.9-33.53,18.46-3.57,27.69-.23,14.13,23,12.77,19.48-1.37-26.16,8.11-31.52,16.21,7.64,25.09,5.5,17.44-.91,16,15.16-17.77,22.49-20.47,25c13.38-2,29.65-5.06,36-2.77s7.82,7,4.89,10.92,4.87,15.94-2.8,16.76S1544.93,145.17,1505.31,132.18Z"/><path class="cls-8" d="M1651,191.91l1-.32-.17.45Z"/><path class="cls-8" d="M1651,191.91l1-.32-.17.45Z"/><path class="cls-18" d="M1663.56,161.76a13,13,0,0,1,4.38-.8c1.42.49,9.64-2.55,13.18-8.62s8.08-.07,9.68,1.36.23,6.91,9.87,10.66,4.49,21.28.72,26.73c-1.44,2.11-5.2,4.54-9.27,6.75,12.4.23,13.11,2.35,13.11,17.06,0,17-8,18.4-16.18,21.43-5.18,1.91-14.87-7.64-18-11.06-1,1.92.09,16.32-4.5,14.92s-1,9.28-14.64,2c-13.16-7-13.42-19.17-8.89-32.52-1.36.31-8.65,1.95-10.33,2,0,0-22.55,1-25.73-16.79s-9.55-21.69,16.83-19.78c1.56.11,3,.25,4.37.4-12.27-11-7.24-14.64-7.24-14.64s6.37-28.66,27.74-16.44C1648.62,144.39,1660.54,150.94,1663.56,161.76Z"/><path class="cls-19" d="M1853.54,199.75c.44-17.32,10.89-21.57,20-26.24s14.89,8,8.89-3.11-2.67-20.89,9.77-34,27.67,3.34,27.67,3.34l0,48.43V246.4s-5.71-7.33-7-3.77,1.11,10-24,12-31.33-16.23-30.22-24.23,2.89-8.22-.45-9.33S1853.09,217.07,1853.54,199.75Z"/><path class="cls-20" d="M1895.06,323.51s-16.74,9-17.78,26.82,11.11,22.37,24,20.44,16.89-20.29,16.89-20.29l-1.19-27Z"/><path class="cls-5" d="M1919.76,302.18S1918.17,322,1906.91,320s-11.85,3.55-11.85,3.55l12.35,1.49s-10.28,3.26-10.28,10.66,8.59,5.34,8.59,5.34,4.74-1.49,4.74,6.22,7.71,3.26,7.71,3.26l1.59-4.45Z"/></g><g id="Calque_2" data-name="Calque 2"><path class="cls-21" d="M448,980.54s1.27-19.24-3.45-28.51"/><circle class="cls-5" cx="444.56" cy="952.03" r="1.47"/><path class="cls-21" d="M448,980.19s-3.54-10.08-8-13.77"/><circle class="cls-5" cx="440.06" cy="966.42" r="0.81"/><path class="cls-21" d="M447.88,980.31S439,970.2,432.14,968"/><circle class="cls-5" cx="432.14" cy="967.96" r="1.02"/><path class="cls-21" d="M448.11,980.41s-10.49-1.91-15.87.1"/><circle class="cls-5" cx="432.24" cy="980.51" r="0.81"/><path class="cls-21" d="M447.93,979.87s11-2.19,15.14-6.28"/><circle class="cls-5" cx="463.07" cy="973.59" r="0.84"/><path class="cls-21" d="M448,980.23s6.31-11.71,6-18.89"/><circle class="cls-5" cx="454.02" cy="961.34" r="1.01" transform="translate(-83.65 44.16) rotate(-5.1)"/><path class="cls-21" d="M447.88,980.31c2.09,3.65.84,16.71-.87,20.21"/><circle class="cls-5" cx="447.01" cy="1000.52" r="1.02"/><path class="cls-21" d="M448,980.53c.31,3-4.22,11.09-6.33,12.87"/><circle class="cls-5" cx="441.7" cy="993.4" r="0.73"/><path class="cls-21" d="M448,980.25c4.31,1,13.61,11.07,15.14,14.84"/><path class="cls-21" d="M447.93,979.87c3.73,1.06,10.67,3.87,15.32,8.27"/><circle class="cls-5" cx="463.15" cy="995.09" r="1.06"/><circle class="cls-5" cx="463.25" cy="988.14" r="1.06"/><path class="cls-21" d="M1471.89,115.25s-1.26,19.24,3.46,28.51"/><circle class="cls-5" cx="1475.35" cy="143.76" r="1.47"/><path class="cls-21" d="M1471.88,115.6s3.54,10.08,8,13.77"/><circle class="cls-5" cx="1479.85" cy="129.37" r="0.81"/><path class="cls-21" d="M1472,115.48s8.85,10.11,15.74,12.35"/><circle class="cls-5" cx="1487.77" cy="127.83" r="1.02"/><path class="cls-21" d="M1471.8,115.38s10.48,1.91,15.87-.1"/><circle class="cls-5" cx="1487.67" cy="115.28" r="0.81"/><path class="cls-21" d="M1472,115.92s-11,2.19-15.15,6.29"/><circle class="cls-5" cx="1456.83" cy="122.21" r="0.84"/><path class="cls-21" d="M1471.9,115.56s-6.31,11.71-6,18.9"/><circle class="cls-5" cx="1465.89" cy="134.46" r="1.01" transform="translate(-6.15 130.83) rotate(-5.1)"/><path class="cls-21" d="M1472,115.48c-2.09-3.65-.84-16.71.87-20.21"/><circle class="cls-5" cx="1472.9" cy="95.27" r="1.02"/><path class="cls-21" d="M1471.88,115.26c-.31-3,4.22-11.09,6.33-12.87"/><circle class="cls-5" cx="1478.21" cy="102.39" r="0.73"/><path class="cls-21" d="M1471.9,115.54c-4.31-1-13.61-11.07-15.14-14.84"/><path class="cls-21" d="M1472,115.92c-3.73-1.06-10.67-3.87-15.32-8.27"/><circle class="cls-5" cx="1456.76" cy="100.7" r="1.06"/><circle class="cls-5" cx="1456.66" cy="107.65" r="1.06"/></g><g id="Calque_2_-_copie" data-name="Calque 2 - copie"><path class="cls-21" d="M258.86,902.89s-5.9-17.81-13.55-24.44"/><circle class="cls-5" cx="245.31" cy="878.45" r="1.43"/><path class="cls-21" d="M258.75,902.57s-6.89-7.79-12.23-9.5"/><circle class="cls-5" cx="246.52" cy="893.07" r="0.79"/><path class="cls-21" d="M258.65,902.73s-11.68-5.87-18.71-5.37"/><circle class="cls-5" cx="239.94" cy="897.36" r="1"/><path class="cls-21" d="M258,902.39s-9-1-13.43,1"/><circle class="cls-5" cx="244.57" cy="903.42" r="0.69"/><path class="cls-21" d="M258.5,902.18s8.16,3.92,10.86,8"/><circle class="cls-5" cx="269.36" cy="910.16" r="0.69"/><path class="cls-21" d="M258.89,902.73s-10.15,2.12-14.27,5.91"/><circle class="cls-5" cx="244.62" cy="908.64" r="0.79"/><path class="cls-21" d="M258.54,902.31s9.09-6,11.35-11.21"/><circle class="cls-5" cx="269.89" cy="891.1" r="0.82"/><path class="cls-21" d="M258.74,902.61s1.4-12.87-1.5-19.23"/><circle class="cls-5" cx="257.24" cy="883.38" r="0.98" transform="translate(-375.38 215.31) rotate(-27.2)"/><path class="cls-21" d="M258.65,902.73c3.22,2.53,6.88,14.76,6.62,18.54"/><circle class="cls-5" cx="265.27" cy="921.27" r="1"/><path class="cls-21" d="M258.87,902.88c1.36,2.56.25,11.54-1,13.91"/><circle class="cls-5" cx="257.88" cy="916.79" r="0.71"/><path class="cls-21" d="M258.75,902.63c4.23-.72,16.32,5,19.08,7.83"/><path class="cls-21" d="M258.54,902.31c3.75-.4,11-.41,16.83,1.85"/><circle class="cls-5" cx="277.83" cy="910.46" r="1.03"/><circle class="cls-5" cx="275.37" cy="904.16" r="1.03"/><path class="cls-21" d="M1661.05,192.9s5.9,17.81,13.55,24.44"/><circle class="cls-5" cx="1674.6" cy="217.34" r="1.43"/><path class="cls-21" d="M1661.16,193.22s6.89,7.79,12.23,9.5"/><circle class="cls-5" cx="1673.39" cy="202.72" r="0.79"/><path class="cls-21" d="M1661.26,193.06s11.68,5.87,18.71,5.37"/><circle class="cls-5" cx="1679.97" cy="198.43" r="1"/><path class="cls-21" d="M1661.91,193.4s9,1,13.43-1"/><circle class="cls-5" cx="1675.34" cy="192.37" r="0.69"/><path class="cls-21" d="M1661.41,193.61s-8.16-3.92-10.86-8"/><circle class="cls-5" cx="1650.55" cy="185.63" r="0.69"/><path class="cls-21" d="M1661,193.06s10.15-2.12,14.27-5.91"/><circle class="cls-5" cx="1675.28" cy="187.15" r="0.79"/><path class="cls-21" d="M1661.37,193.48s-9.09,6-11.35,11.21"/><circle class="cls-5" cx="1650.02" cy="204.69" r="0.82"/><path class="cls-21" d="M1661.17,193.18s-1.4,12.87,1.5,19.23"/><circle class="cls-5" cx="1662.67" cy="212.41" r="0.98" transform="translate(86.8 783.58) rotate(-27.2)"/><path class="cls-21" d="M1661.26,193.06c-3.22-2.53-6.88-14.76-6.62-18.54"/><circle class="cls-5" cx="1654.64" cy="174.52" r="1"/><path class="cls-21" d="M1661,192.91c-1.37-2.56-.26-11.54,1-13.91"/><circle class="cls-5" cx="1662.03" cy="179" r="0.71"/><path class="cls-21" d="M1661.16,193.16c-4.23.72-16.33-5-19.08-7.83"/><path class="cls-21" d="M1661.37,193.48c-3.75.41-11,.41-16.83-1.85"/><circle class="cls-5" cx="1642.08" cy="185.33" r="1.03"/><circle class="cls-5" cx="1644.54" cy="191.63" r="1.03"/></g><g id="Calque_4" data-name="Calque 4"><path class="cls-21" d="M160.33,892.7s-3.63-15.44-9.57-21.59"/><circle class="cls-5" cx="150.76" cy="871.11" r="1.21"/><path class="cls-21" d="M160.23,892.3s-7.39-10-13.58-12.64"/><circle class="cls-5" cx="146.65" cy="879.66" r="0.95"/><path class="cls-21" d="M160.1,892.48s-13.31-8.25-21.76-8.4"/><circle class="cls-5" cx="138.34" cy="884.08" r="1.19"/><path class="cls-21" d="M159.36,892s-10.63-2.14-16.15-.2"/><circle class="cls-5" cx="143.21" cy="891.81" r="0.83"/><path class="cls-21" d="M160,891.81s9.31,5.54,12.1,10.69"/><circle class="cls-5" cx="172.08" cy="902.5" r="0.83"/><path class="cls-21" d="M160.39,892.51S148.05,894,142.73,898"/><circle class="cls-5" cx="142.73" cy="898.03" r="0.95"/><path class="cls-21" d="M160,892s11.49-6.18,14.74-12.16"/><circle class="cls-5" cx="174.75" cy="956.09" r="0.98"/><path class="cls-21" d="M160.22,892.35s3-15.21.26-23.11"/><circle class="cls-5" cx="160.48" cy="869.24" r="1.18" transform="translate(-315.16 124.19) rotate(-22.09)"/><path class="cls-21" d="M160.1,892.48c3.57,3.36,6.63,18.35,5.92,22.83"/><circle class="cls-5" cx="166.02" cy="915.31" r="1.19"/><path class="cls-21" d="M160.34,892.68c1.36,3.2-.92,13.8-2.67,16.5"/><circle class="cls-5" cx="157.67" cy="909.18" r="0.85"/><path class="cls-21" d="M160.22,892.37c5.13-.4,18.95,7.7,21.94,11.39"/><path class="cls-21" d="M160,892c4.51-.08,13.21.69,19.89,4"/><circle class="cls-5" cx="182.16" cy="903.76" r="1.23"/><circle class="cls-5" cx="179.9" cy="895.97" r="1.23"/><path class="cls-5" d="M13.07,897.47A81.82,81.82,0,0,0,0,907.62v-1.07A79,79,0,0,1,10.87,898h0l.69-.45.66-.42.16-.1.29-.18Z"/><path class="cls-21" d="M12.53,897.37S5.3,907.51,4.74,914.2"/><circle class="cls-5" cx="4.74" cy="914.2" r="0.95"/><path class="cls-21" d="M12.74,897.43s-3.69,15.22-1.21,23.29"/><circle class="cls-5" cx="11.53" cy="920.72" r="1.19"/><path class="cls-21" d="M12.53,898.28s1.27,10.77,4.83,15.41"/><circle class="cls-5" cx="17.36" cy="913.69" r="0.83"/><path class="cls-21" d="M12.14,897.76s2.38-10.58,6.4-14.83"/><circle class="cls-5" cx="18.54" cy="882.93" r="0.83"/><path class="cls-21" d="M12.69,897.15s5.21,11.28,10.74,15.06"/><circle class="cls-5" cx="23.43" cy="912.21" r="0.95"/><path class="cls-5" d="M12.55,897.41l-.37.38L12,898l-.12-.12-.34-.3-.39-.36A55.62,55.62,0,0,0,0,889.2v-.84c5.2,2.43,10.66,7.28,12.18,8.68l.08.07Z"/><path class="cls-5" d="M12.63,897.73l-.45.06-.27,0-1,.15h0A83.58,83.58,0,0,0,0,900.4v-.8a83.24,83.24,0,0,1,11.2-2.43l1-.13.24,0,.15,0Z"/><path class="cls-21" d="M12.74,897.43c2.09-4.44,15.38-12,19.86-12.72"/><circle class="cls-5" cx="32.6" cy="884.71" r="1.19"/><path class="cls-21" d="M12.86,897.14c2.62-2.28,13.4-3.41,16.51-2.6"/><circle class="cls-5" cx="29.37" cy="894.54" r="0.85"/><path class="cls-21" d="M12.6,897.35c-2-4.75,1.43-20.41,4-24.39"/><path class="cls-21" d="M12.29,897.68c-1.49-4.27-3.46-12.77-2.39-20.15"/><circle class="cls-5" cx="16.6" cy="872.96" r="1.23"/><circle class="cls-5" cx="9.9" cy="877.53" r="1.23"/><path class="cls-21" d="M1759.58,203.1s3.63,15.43,9.56,21.58"/><circle class="cls-5" cx="1769.14" cy="224.68" r="1.21"/><path class="cls-21" d="M1759.68,203.49s7.39,10,13.58,12.64"/><circle class="cls-5" cx="1773.26" cy="216.13" r="0.95"/><path class="cls-21" d="M1759.81,203.31s13.31,8.25,21.76,8.4"/><circle class="cls-5" cx="1781.57" cy="211.71" r="1.19"/><path class="cls-21" d="M1760.55,203.78s10.63,2.14,16.14.2"/><circle class="cls-5" cx="1776.69" cy="203.98" r="0.83"/><path class="cls-21" d="M1759.93,204s-9.31-5.54-12.1-10.68"/><circle class="cls-5" cx="1747.83" cy="193.3" r="0.83"/><path class="cls-21" d="M1759.52,203.28s12.34-1.45,17.66-5.52"/><circle class="cls-5" cx="1777.18" cy="197.76" r="0.95"/><path class="cls-21" d="M1759.9,203.82S1748.41,210,1745.16,216"/><circle class="cls-5" cx="1745.16" cy="215.98" r="0.98"/><path class="cls-21" d="M1759.69,203.44s-3,15.21-.26,23.11"/><circle class="cls-5" cx="1759.43" cy="226.55" r="1.18" transform="translate(43.98 678.4) rotate(-22.09)"/><path class="cls-21" d="M1759.81,203.31c-3.57-3.36-6.63-18.35-5.92-22.83"/><circle class="cls-5" cx="1753.89" cy="180.48" r="1.19"/><path class="cls-21" d="M1759.57,203.11c-1.36-3.2.92-13.8,2.66-16.5"/><circle class="cls-5" cx="1762.23" cy="186.61" r="0.85"/><path class="cls-21" d="M1759.69,203.42c-5.13.4-19-7.7-21.94-11.38"/><path class="cls-21" d="M1759.9,203.82c-4.52.08-13.21-.69-19.89-4"/><circle class="cls-5" cx="1737.75" cy="192.04" r="1.23"/><circle class="cls-5" cx="1740.01" cy="199.82" r="1.23"/><path class="cls-5" d="M1906.84,198.32a81.82,81.82,0,0,0,13.09-10.15v1.07a79,79,0,0,1-10.89,8.57h0l-.69.45-.66.42-.16.1-.29.18Z"/><path class="cls-21" d="M1907.38,198.42s7.23-10.14,7.79-16.83"/><circle class="cls-5" cx="1915.17" cy="181.59" r="0.95"/><path class="cls-21" d="M1907.17,198.36s3.69-15.22,1.21-23.29"/><circle class="cls-5" cx="1908.38" cy="175.07" r="1.19"/><path class="cls-21" d="M1907.38,197.51s-1.27-10.77-4.83-15.41"/><circle class="cls-5" cx="1902.55" cy="182.1" r="0.83"/><path class="cls-21" d="M1907.77,198s-2.38,10.58-6.4,14.83"/><circle class="cls-5" cx="1901.37" cy="212.86" r="0.83"/><path class="cls-21" d="M1907.22,198.64s-5.21-11.27-10.74-15.06"/><circle class="cls-5" cx="1896.48" cy="183.58" r="0.95"/><path class="cls-5" d="M1907.36,198.38l.37-.38.15-.16.12.12.34.3.39.36a55.62,55.62,0,0,0,11.21,8v.84c-5.2-2.43-10.66-7.28-12.18-8.68l-.08-.07Z"/><path class="cls-5" d="M1907.28,198.06l.45-.06.27,0,1-.15h0a83.58,83.58,0,0,0,10.89-2.42v.8a83.24,83.24,0,0,1-11.2,2.43l-1,.13-.24,0-.15,0Z"/><path class="cls-21" d="M1907.17,198.36c-2.09,4.44-15.38,12-19.86,12.72"/><circle class="cls-5" cx="1887.31" cy="211.08" r="1.19"/><path class="cls-21" d="M1907.05,198.65c-2.62,2.29-13.4,3.41-16.51,2.6"/><circle class="cls-5" cx="1890.54" cy="201.25" r="0.85"/><path class="cls-21" d="M1907.3,198.44c2,4.75-1.42,20.41-4,24.39"/><path class="cls-21" d="M1907.62,198.11c1.49,4.27,3.46,12.77,2.38,20.15"/><circle class="cls-5" cx="1903.31" cy="222.83" r="1.23"/><circle class="cls-5" cx="1910" cy="218.26" r="1.23"/></g></svg>