<svg class="rk-sliders_h" aria-hidden="true" xmlns="http://www.w3.org/2000/svg" viewBox="0 0 24 24"><defs><style>.rk-sliders_h .cls-1{fill:none;stroke:currentColor;stroke-linecap:round;stroke-linejoin:round;stroke-width:1.5px;}</style></defs><path class="cls-1" d="M4.88,19.71H19.12m-14.24,0a1.13,1.13,0,0,1-1.13-1.13m1.13,1.13h1.5A1.13,1.13,0,0,0,7.5,18.58m-3.75,0V5.83m0,12.75v-1.5A1.12,1.12,0,0,1,4.88,16m15.37,2.62V5.83m0,12.75a1.13,1.13,0,0,1-1.13,1.13m1.13-1.13v-1.5A1.12,1.12,0,0,0,19.12,16m0,3.75h-1.5a1.13,1.13,0,0,1-1.12-1.13M19.12,4.71H4.88m14.24,0a1.12,1.12,0,0,1,1.13,1.12M19.12,4.71h-1.5A1.12,1.12,0,0,0,16.5,5.83m3.75,0v1.5a1.13,1.13,0,0,1-1.13,1.13M4.88,4.71A1.12,1.12,0,0,0,3.75,5.83M4.88,4.71h1.5A1.12,1.12,0,0,1,7.5,5.83m-3.75,0v1.5A1.13,1.13,0,0,0,4.88,8.46m0,0h1.5m-1.5,0A1.12,1.12,0,0,0,3.75,9.58v1.5a1.13,1.13,0,0,0,1.13,1.13m1.5-3.75A1.13,1.13,0,0,0,7.5,7.33V5.83M6.38,8.46A1.12,1.12,0,0,1,7.5,9.58v1.5m0-5.25v5.25m0-5.25A1.12,1.12,0,0,1,8.62,4.71h6.76A1.12,1.12,0,0,1,16.5,5.83m1.12,2.63h1.5m-1.5,0A1.13,1.13,0,0,1,16.5,7.33h0V5.83m1.12,2.63A1.12,1.12,0,0,0,16.5,9.58v1.5m2.62-2.62a1.12,1.12,0,0,1,1.13,1.12v1.5a1.13,1.13,0,0,1-1.13,1.13M16.5,5.83v5.25M8.62,12.21h6.76m-6.76,0A1.13,1.13,0,0,1,7.5,11.08m1.12,1.13A1.12,1.12,0,0,0,7.5,13.33m0-2.25a1.13,1.13,0,0,1-1.12,1.13M16.5,11.08a1.13,1.13,0,0,1-1.12,1.13m1.12-1.13a1.13,1.13,0,0,0,1.12,1.13m-2.24,0a1.12,1.12,0,0,1,1.12,1.12m-9,5.25V13.33m0,5.25a1.13,1.13,0,0,0,1.12,1.13h6.76a1.13,1.13,0,0,0,1.12-1.13m-9,0v-1.5A1.12,1.12,0,0,0,6.38,16M16.5,18.58V13.33m0,5.25v-1.5A1.12,1.12,0,0,1,17.62,16M16.5,13.33v1.5A1.13,1.13,0,0,0,17.62,16M16.5,13.33a1.12,1.12,0,0,1,1.12-1.12M7.5,13.33v1.5A1.13,1.13,0,0,1,6.38,16M7.5,13.33a1.12,1.12,0,0,0-1.12-1.12m-1.5,0h1.5m-1.5,0a1.12,1.12,0,0,0-1.13,1.12v1.5A1.13,1.13,0,0,0,4.88,16m12.74-3.75h1.5m0,0a1.12,1.12,0,0,1,1.13,1.12v1.5A1.13,1.13,0,0,1,19.12,16M4.88,16h1.5m11.24,0h1.5"/></svg>